<?xml version="1.0" encoding="UTF-8" standalone="no"?>
<svg
   xmlns:dc="http://purl.org/dc/elements/1.1/"
   xmlns:cc="http://creativecommons.org/ns#"
   xmlns:rdf="http://www.w3.org/1999/02/22-rdf-syntax-ns#"
   xmlns:svg="http://www.w3.org/2000/svg"
   xmlns="http://www.w3.org/2000/svg"
   viewBox="0 0 1132.5266 1132.5239"
   height="1132.5239"
   width="1132.5266"
   xml:space="preserve"
   id="svg2"
   version="1.1"><metadata
     id="metadata8"><rdf:RDF><cc:Work
         rdf:about=""><dc:format>image/svg+xml</dc:format><dc:type
           rdf:resource="http://purl.org/dc/dcmitype/StillImage" /></cc:Work></rdf:RDF></metadata><defs
     id="defs6"><clipPath
       id="clipPath20"
       clipPathUnits="userSpaceOnUse"><path
         id="path18"
         d="M 0,849.393 H 849.394 V 0 H 0 Z" /></clipPath><clipPath
       id="clipPath28"
       clipPathUnits="userSpaceOnUse"><path
         id="path26"
         d="m 111.574,849.894 h 738.32 V 277.536 h -738.32 z" /></clipPath><clipPath
       id="clipPath32"
       clipPathUnits="userSpaceOnUse"><path
         style="clip-rule:evenodd"
         id="path30"
         d="m 737.984,294.759 111.91,111.91 V 849.894 H 456.672 L 111.574,504.63 l 1.879,-113.947 2.824,-94.475 78.477,78.314 4.758,-78.283 8.675,8.553 89.461,48.133 113.106,-30.274 -8.68,-4.761 0.516,-3.401 -27.727,-27.898 100.649,-9.055 26.234,26.238 80.156,3.215 23.082,22.975 32.993,5.271 15.308,15.139 1.359,-55.783 78.067,78.058 z" /></clipPath><linearGradient
       id="linearGradient38"
       spreadMethod="pad"
       gradientTransform="matrix(643.65143,643.65143,643.65143,-643.65143,218.74359,193.74168)"
       gradientUnits="userSpaceOnUse"
       y2="0"
       x2="1"
       y1="0"
       x1="0"><stop
         id="stop34"
         offset="0"
         style="stop-opacity:1;stop-color:#7c8b89" /><stop
         id="stop36"
         offset="1"
         style="stop-opacity:1;stop-color:#bac3c5" /></linearGradient></defs><g
     transform="matrix(1.3333333,0,0,-1.3333333,0,1132.524)"
     id="g10"><path
       id="path12"
       style="fill:#bac3c5;fill-opacity:1;fill-rule:nonzero;stroke:none"
       d="M 0,0 H 849.395 V 849.393 H 0 Z" /><g
       id="g14"><g
         clip-path="url(#clipPath20)"
         id="g16"><g
           id="g22"><g
             id="g24" /><g
             id="g52"><g
               style="opacity:0.69999701"
               id="g50"
               clip-path="url(#clipPath28)"><g
                 id="g48"><g
                   id="g46"
                   clip-path="url(#clipPath32)"><g
                     id="g44"><g
                       id="g42"><path
                         id="path40"
                         style="fill:url(#linearGradient38);fill-rule:evenodd;stroke:none"
                         d="m 737.984,294.759 111.91,111.91 V 849.894 H 456.672 L 111.574,504.63 l 1.879,-113.947 2.824,-94.475 78.477,78.314 4.758,-78.283 8.675,8.553 89.461,48.133 113.106,-30.274 -8.68,-4.761 0.516,-3.401 -27.727,-27.898 100.649,-9.055 26.234,26.238 80.156,3.215 23.082,22.975 32.993,5.271 15.308,15.139 1.359,-55.783 78.067,78.058 z" /></g></g></g></g></g></g></g><g
           transform="translate(119.0664,405.1396)"
           id="g54"><path
             id="path56"
             style="fill:#fdffff;fill-opacity:1;fill-rule:evenodd;stroke:none"
             d="m 0,0 h 73.137 c 4.59,0 8.332,-3.744 8.332,-8.336 0,-4.592 -3.742,-8.33 -8.332,-8.33 H 0 c -4.59,0 -8.332,3.738 -8.332,8.33 C -8.332,-3.744 -4.59,0 0,0" /></g><g
           transform="translate(200.5351,393.0654)"
           id="g58"><path
             id="path60"
             style="fill:#32403f;fill-opacity:1;fill-rule:evenodd;stroke:none"
             d="m 0,0 v -11.568 -83 c 0,-1.698 -1.531,-3.233 -3.234,-3.233 -1.868,0 -3.403,1.535 -3.403,3.233 v 83 h -76.531 v -83 c 0,-1.698 -1.531,-3.233 -3.402,-3.233 -1.703,0 -3.231,1.535 -3.231,3.233 v 83 16.498 104.597 c 0,1.703 1.528,3.233 3.231,3.233 1.871,0 3.402,-1.53 3.402,-3.233 V 4.93 H 0 Z" /></g><g
           transform="translate(430.1406,448.8506)"
           id="g62"><path
             id="path64"
             style="fill:#32403f;fill-opacity:1;fill-rule:evenodd;stroke:none"
             d="m 0,0 v -159.701 h 38.781 c 4.762,0 8.672,-3.233 8.672,-7.151 0,-3.906 -3.91,-6.97 -8.672,-6.97 h -87.422 c -4.765,0 -8.847,3.064 -8.847,6.97 0,3.918 4.082,7.151 8.847,7.151 H -9.867 V 0 Z" /></g><g
           transform="translate(207.3398,472.3232)"
           id="g66"><path
             id="path68"
             style="fill:#fdffff;fill-opacity:1;fill-rule:evenodd;stroke:none"
             d="m 0,0 c -0.344,-55.621 -4.254,-104.604 -2.215,-160.898 0.34,-7.145 8.168,-14.114 15.309,-11.731 l 41.16,13.092 c 0,0 39.625,8.848 57.144,-3.57 17.516,-12.586 82.489,-7.487 83.68,3.744 1.195,11.218 45.918,15.812 62.078,9.691 16.332,-6.297 5.953,-18.539 29.766,-20.922 133.004,-14.115 66.84,23.137 110.722,25.856 20.071,1.187 33.844,2.547 36.227,13.777 2.211,9.691 2.379,106.465 2.035,133.34 0,4.592 -3.738,6.969 -10.371,6.969 C 286.578,7.477 147.457,9.348 8.5,9.348 2.547,9.348 0,6.971 0,0" /></g><g
           transform="translate(730.164,405.1396)"
           id="g70"><path
             id="path72"
             style="fill:#fdffff;fill-opacity:1;fill-rule:evenodd;stroke:none"
             d="m 0,0 h -73.141 c -4.586,0 -8.332,-3.744 -8.332,-8.336 0,-4.592 3.746,-8.33 8.332,-8.33 H 0 c 4.586,0 8.328,3.738 8.328,8.33 C 8.328,-3.744 4.586,0 0,0" /></g><g
           transform="translate(648.6914,393.0654)"
           id="g74"><path
             id="path76"
             style="fill:#32403f;fill-opacity:1;fill-rule:evenodd;stroke:none"
             d="m 0,0 v -11.568 l 0.344,-84.698 c 0,-1.697 1.359,-3.232 3.226,-3.232 1.871,0 3.403,1.535 3.403,3.232 l -0.336,84.698 h 76.531 l 0.34,-84.698 c 0,-1.697 1.535,-3.232 3.234,-3.232 1.871,0 3.402,1.535 3.402,3.232 l -0.343,84.698 V 4.93 l -0.34,112.933 c 0,1.868 -1.527,3.401 -3.402,3.401 -1.696,0 -3.227,-1.533 -3.227,-3.401 L 83.168,4.93 H 0 Z" /></g><g
           transform="translate(414.8359,567.3936)"
           id="g78"><path
             id="path80"
             style="fill:#fdffff;fill-opacity:1;fill-rule:evenodd;stroke:none"
             d="m 0,0 c 2.035,0 3.742,-3.4 3.742,-7.65 0,-4.256 -1.707,-7.825 -3.742,-7.825 -2.215,0 -3.746,3.569 -3.746,7.825 C -3.746,-3.4 -2.215,0 0,0" /></g><g
           transform="translate(414.8359,561.4404)"
           id="g82"><path
             id="path84"
             style="fill:#32403f;fill-opacity:1;fill-rule:evenodd;stroke:none"
             d="M 0,0 C 1.02,0 1.867,-1.871 1.867,-4.08 1.867,-6.465 1.02,-8.336 0,-8.336 c -1.191,0 -2.039,1.871 -2.039,4.256 C -2.039,-1.871 -1.191,0 0,0" /></g><path
           id="path86"
           style="fill:#fdffff;fill-opacity:1;fill-rule:evenodd;stroke:none"
           d="m 413.98,560.249 h 1.531 v -8.33 h -1.531 z" /><g
           transform="translate(409.5625,555.1514)"
           id="g88"><path
             id="path90"
             style="fill:#32403f;fill-opacity:1;fill-rule:evenodd;stroke:none"
             d="m 0,0 h 10.375 c 2.043,0 3.738,-1.535 3.738,-3.576 v -67.52 c 0,-2.041 -1.695,-3.744 -3.738,-3.744 L 0,-74.84 c -2.043,0 -3.742,1.703 -3.742,3.744 v 67.52 C -3.742,-1.535 -2.043,0 0,0" /></g><g
           transform="translate(259.3828,536.2686)"
           id="g92"><path
             id="path94"
             style="fill:#32403f;fill-opacity:1;fill-rule:evenodd;stroke:none"
             d="m 0,0 h 2.211 v -50.516 h 11.227 c 1.015,0 2.039,-1.017 2.039,-2.035 0,-1.191 -1.024,-2.215 -2.039,-2.215 h -24.493 c -1.191,0 -2.214,1.024 -2.214,2.215 0,1.018 1.023,2.035 2.214,2.035 H 0 Z" /></g><g
           transform="translate(581.0039,534.9092)"
           id="g96"><path
             id="path98"
             style="fill:#32403f;fill-opacity:1;fill-rule:evenodd;stroke:none"
             d="m 0,0 h 2.039 v -50.518 h 11.227 c 1.187,0 2.043,-1.017 2.043,-2.209 0,-1.017 -0.856,-2.041 -2.043,-2.041 h -24.493 c -1.191,0 -2.039,1.024 -2.039,2.041 0,1.192 0.848,2.209 2.039,2.209 H 0 Z" /></g><g
           transform="translate(283.3633,574.5381)"
           id="g100"><path
             id="path102"
             style="fill:#fdffff;fill-opacity:1;fill-rule:evenodd;stroke:none"
             d="m 0,0 c -0.168,-24.492 -10.375,-44.053 -22.793,-44.053 -12.582,0 -22.617,19.561 -22.961,44.053 z" /></g><g
           transform="translate(282.3906,567.9736)"
           id="g104"><path
             id="path106"
             style="fill:#32403f;fill-opacity:1;fill-rule:evenodd;stroke:none"
             d="m 0,0 c -1.643,-20.723 -10.828,-36.709 -21.82,-36.709 -11.153,0 -20.34,15.986 -21.814,36.709 z" /></g><g
           transform="translate(604.8125,573.1768)"
           id="g108"><path
             id="path110"
             style="fill:#fdffff;fill-opacity:1;fill-rule:evenodd;stroke:none"
             d="M 0,0 C -0.172,-24.49 -10.375,-44.221 -22.793,-44.221 -35.379,-44.221 -45.41,-24.49 -45.578,0 Z" /></g><g
           transform="translate(603.7656,566.751)"
           id="g112"><path
             id="path114"
             style="fill:#32403f;fill-opacity:1;fill-rule:evenodd;stroke:none"
             d="m 0,0 c -1.473,-20.881 -10.623,-37.152 -21.745,-37.152 -11.114,0 -20.273,16.271 -21.741,37.152 z" /></g></g></g></g></svg>